<svg xmlns="http://www.w3.org/2000/svg" width="147.5" height="30" viewBox="0 0 147.5 30">
  <g id="Groupe_36788" data-name="Groupe 36788" transform="translate(24420.5 19344)">
    <g id="logo" transform="translate(-24560.5 -19442.094)">
      <g id="Groupe_1" data-name="Groupe 1" transform="translate(140 98.411)">
        <path id="Tracé_1" data-name="Tracé 1" d="M15.113,0A14.9,14.9,0,0,0,0,14.683,14.9,14.9,0,0,0,15.113,29.366,14.9,14.9,0,0,0,30.225,14.683,14.851,14.851,0,0,0,15.113,0Zm3.1,17.039H14.88V14.291h4.572Zm-5.27-5.575H20.77l1.163-2.748H9.3v12.72h3.642Z" fill="#b91422" fill-rule="evenodd"/>
        <path id="Tracé_2" data-name="Tracé 2" d="M86.441,20.437a6.979,6.979,0,1,1,6.975,6.753A6.827,6.827,0,0,1,86.441,20.437Zm3.41,0a3.57,3.57,0,1,0,7.13,0,3.618,3.618,0,0,0-3.565-3.769A3.718,3.718,0,0,0,89.851,20.437Z" transform="translate(-36.842 -5.832)" fill="#1e1e1e" fill-rule="evenodd"/>
        <path id="Tracé_3" data-name="Tracé 3" d="M74.286,26.011h3.333l1.24-2.748H74.286Z" transform="translate(-31.661 -9.915)" fill="#1e1e1e" fill-rule="evenodd"/>
        <path id="Tracé_4" data-name="Tracé 4" d="M63.48,26.4h3.565V16.432h7.827l1.163-2.748H63.48Z" transform="translate(-27.056 -5.832)" fill="#1e1e1e" fill-rule="evenodd"/>
        <path id="Tracé_5" data-name="Tracé 5" d="M137.767,16.432h4.649V26.4h3.643V16.432h4.572V13.684H137.767Z" transform="translate(-58.717 -5.832)" fill="#1e1e1e" fill-rule="evenodd"/>
        <path id="Tracé_6" data-name="Tracé 6" d="M167.071,13.684h-3.642V26.4h3.642Z" transform="translate(-69.654 -5.832)" fill="#1e1e1e"/>
        <path id="Tracé_7" data-name="Tracé 7" d="M184.386,21.222l-6.82-7.538h-3.333V26.4h3.642V18.709l7.053,7.695h3.023V13.684h-3.565Z" transform="translate(-74.258 -5.832)" fill="#1e1e1e" fill-rule="evenodd"/>
        <path id="Tracé_8" data-name="Tracé 8" d="M123.141,21.929a4.2,4.2,0,0,0,3.178-4c0-2.67-2.093-4.24-5.813-4.24h-7.053V26.4h3.565l-.077-9.972h3.72c1.55,0,1.86.942,1.86,1.492a1.643,1.643,0,0,1-1.86,1.57h-1.782v2.513l4.185,4.476h4.185Z" transform="translate(-48.354 -5.832)" fill="#1e1e1e" fill-rule="evenodd"/>
        <path id="Tracé_9" data-name="Tracé 9" d="M203.97,16.23l.465.628h.31l-.465-.707a.517.517,0,0,0,.465-.55.629.629,0,0,0-.7-.55h-.775v1.806h.31V16.23Zm-.387-.864h.465c.232,0,.387.079.387.314a.356.356,0,0,1-.387.314h-.465Z" transform="translate(-86.635 -6.415)" fill="#1e1e1e" fill-rule="evenodd"/>
        <path id="Tracé_10" data-name="Tracé 10" d="M201.247,15.49a1.861,1.861,0,1,1,1.86,1.806A1.831,1.831,0,0,1,201.247,15.49Zm.31,0A1.551,1.551,0,1,0,203.107,14,1.5,1.5,0,0,0,201.557,15.49Z" transform="translate(-85.772 -5.832)" fill="#1e1e1e" fill-rule="evenodd"/>
      </g>
    </g>
    <rect id="Rectangle_14956" data-name="Rectangle 14956" width="28" height="30" transform="translate(-24301 -19344)" fill="none"/>
  </g>
</svg>
